{"title":"Snow Dogs 2002 DVDrip English Dutch Klam","uid":7882103,"size":2310112430,"categoryP":"video","categoryS":"movies","magnet":"?xt=urn:btih:7ea1ba348833573bf81b149735af106ba0dafcbc&amp;dn=Snow+Dogs+2002+DVDrip+English+Dutch+Klam&amp;tr=udp%3A%2F%2Ftracker.openbittorrent.com%3A80&amp;tr=udp%3A%2F%2Fopen.demonii.com%3A1337&amp;tr=udp%3A%2F%2Ftracker.coppersurfer.tk%3A6969&amp;tr=udp%3A%2F%2Fexodus.desync.com%3A6969","seeders":1,"leechers":0,"uploader":"Klambake","files":-1,"time":1354525201,"description":"With: Cuba Gooding Jr., James Coburn and M. Emmet Walsh\n\nWanneer de tandarts Ted Brooks uit Miami er achter komt dat hij genoemd wordt in een testament reist hij naar Alaska om zijn deel op te halen. Wanneer hij er arriveert blijkt echter dat hij een team sleehonden gekregen heeft. De bergman Thunder Jack wil de honden graag zelf hebben, en hij dringt er bij Ted aan om terug te keren naar een warmer klimaat. Hij besluit echter om te leren om te racen met de honden.\n &lt;a href=&quot;\nhttp://www.imdb.com/title/tt0281373&quot; rel=&quot;nofollow&quot; target=&quot;_NEW&quot;&gt;\nhttp://www.imdb.com/title/tt0281373&lt;/a&gt;\t\n\n------------------------ Dutch Friends ------------------------\n---------------------------------------------------------------\n- Bezoek ook eens mijn vrienden op: &lt;a href=&quot; http://www.Film-Test.nl&quot; rel=&quot;nofollow&quot; target=&quot;_NEW&quot;&gt; http://www.Film-Test.nl&lt;/a&gt; --\n----- voor mijn Nederlandse Sync. ondertitels ---- en meer ----\n------- http://www.Film-Test.nl ---- Over Films en meer -------\n---------------------------------------------------------------\n\nGeneral:\n\nComplete name                    : Smow DogsSnow Dogs.avi\nFormat                           : AVI\nFormat/Info                      : Audio Video Interleave\nFile size                        : 2.15 GiB\nDuration                         : 1h 35mn\nOverall bit rate                 : 3 231 Kbps\n\nVideo:\n\nFormat                           : MPEG-4 Visual\nFormat profile                   : Simple@L3\nFormat settings, BVOP            : No\nFormat settings, QPel            : No\nFormat settings, GMC             : No warppoints\nFormat settings, Matrix          : Default (H.263)\nCodec ID                         : XVID\nCodec ID/Hint                    : XviD\nDuration                         : 1h 35mn\nBit rate                         : 2 446 Kbps\nWidth                            : 704 pixels\nHeight                           : 396 pixels\nDisplay aspect ratio             : 16:9\nFrame rate                       : 25.000 fps\nColor space                      : YUV\nChroma subsampling               : 4:2:0\nBit depth                        : 8 bits\nScan type                        : Progressive\nCompression mode                 : Lossy\nBits/(Pixel*Frame)               : 0.351\nStream size                      : 1.63 GiB (76%)\nWriting library                  : XviD 1.1.2 (UTC 2006-11-01)\n\nAudio's:\n\nFormat                           : AC-3\nFormat/Info                      : Audio Coding 3\nMode extension                   : CM (complete main)\nCodec ID                         : 2000\nDuration                         : 1h 35mn\nBit rate mode                    : Constant\nBit rate                         : 384 Kbps\nChannel(s)                       : 6 channels\nChannel positions                : Front: L C R, Side: L R, LFE\nSampling rate                    : 48.0 KHz\nBit depth                        : 16 bits\nCompression mode                 : Lossy\nStream size                      : 262 MiB (12%)\nAlignment                        : Aligned on interleaves\nInterleave, duration             : 32 ms (0.80 video frame)\nInterleave, preload duration     : 288 ms","torrent":{"xt":"urn:btih:7ea1ba348833573bf81b149735af106ba0dafcbc","amp;dn":"Snow+Dogs+2002+DVDrip+English+Dutch+Klam","amp;tr":["udp%3A%2F%2Ftracker.openbittorrent.com%3A80","udp%3A%2F%2Fopen.demonii.com%3A1337","udp%3A%2F%2Ftracker.coppersurfer.tk%3A6969","udp%3A%2F%2Fexodus.desync.com%3A6969"],"infoHash":"7ea1ba348833573bf81b149735af106ba0dafcbc","infoHashBuffer":{"type":"Buffer","data":[126,161,186,52,136,51,87,59,248,27,20,151,53,175,16,107,160,218,252,188]},"announce":[],"urlList":[]}}